dataset
version=1
nRows=16
nColumns=39
inDegrees=no
endheader
time	sternoclavicular_r2	sternoclavicular_r3	unrotscap_r3	unrotscap_r2	acromioclavicular_r2	acromioclavicular_r3	acromioclavicular_r1	unrothum_r1	unrothum_r3	unrothum_r2	elv_angle	shoulder_elv	shoulder1_r2	shoulder_rot	elbow_flexion	pro_sup	deviation	flexion	cmc_abduction	cmc_flexion	mp_flexion	ip_flexion	mcp2_flexion	mcp2_abduction	pm2_flexion	md2_flexion	mcp3_flexion	mcp3_abduction	pm3_flexion	md3_flexion	mcp4_flexion	mcp4_abduction	pm4_flexion	md4_flexion	mcp5_flexion	mcp5_abduction	pm5_flexion	md5_flexion
8.775000	-0.023222	-0.354638	0.232611	0.088078	0.076333	0.056027	-0.235229	-0.175564	-0.050115	0.149289	0.079663	0.027437	0.146525	0.146525	1.713602	1.286681	0.000000	0.000000	0.000000	0.000000	0.000000	0.000000	0.000000	0.000000	0.000000	0.000000	0.000000	0.000000	0.000000	0.000000	0.000000	0.000000	0.000000	0.000000	0.000000	0.000000	0.000000	0.000000
8.780000	-0.023259	-0.354779	0.232850	0.088045	0.076300	0.056026	-0.235518	-0.175637	-0.050386	0.149280	0.079560	0.027437	0.146525	0.146525	1.713896	1.286692	0.000000	0.000000	0.000000	0.000000	0.000000	0.000000	0.000000	0.000000	0.000000	0.000000	0.000000	0.000000	0.000000	0.000000	0.000000	0.000000	0.000000	0.000000	0.000000	0.000000	0.000000	0.000000
8.785000	-0.023298	-0.354921	0.233092	0.088013	0.076268	0.056026	-0.235811	-0.175712	-0.050661	0.149272	0.079458	0.027437	0.146525	0.146525	1.714189	1.286703	0.000000	0.000000	0.000000	0.000000	0.000000	0.000000	0.000000	0.000000	0.000000	0.000000	0.000000	0.000000	0.000000	0.000000	0.000000	0.000000	0.000000	0.000000	0.000000	0.000000	0.000000	0.000000
8.790000	-0.023337	-0.355065	0.233337	0.087983	0.076238	0.056025	-0.236108	-0.175788	-0.050937	0.149266	0.079356	0.027437	0.146525	0.146525	1.714483	1.286714	0.000000	0.000000	0.000000	0.000000	0.000000	0.000000	0.000000	0.000000	0.000000	0.000000	0.000000	0.000000	0.000000	0.000000	0.000000	0.000000	0.000000	0.000000	0.000000	0.000000	0.000000	0.000000
8.795000	-0.023376	-0.355211	0.233587	0.087954	0.076208	0.056026	-0.236409	-0.175866	-0.051214	0.149260	0.079255	0.027437	0.146525	0.146525	1.714777	1.286725	0.000000	0.000000	0.000000	0.000000	0.000000	0.000000	0.000000	0.000000	0.000000	0.000000	0.000000	0.000000	0.000000	0.000000	0.000000	0.000000	0.000000	0.000000	0.000000	0.000000	0.000000	0.000000
8.800000	-0.023416	-0.355358	0.233839	0.087926	0.076181	0.056027	-0.236715	-0.175947	-0.051493	0.149256	0.079154	0.027437	0.146525	0.146525	1.715072	1.286735	0.000000	0.000000	0.000000	0.000000	0.000000	0.000000	0.000000	0.000000	0.000000	0.000000	0.000000	0.000000	0.000000	0.000000	0.000000	0.000000	0.000000	0.000000	0.000000	0.000000	0.000000	0.000000
8.805000	-0.023457	-0.355506	0.234096	0.087900	0.076154	0.056028	-0.237025	-0.176030	-0.051771	0.149254	0.079053	0.027437	0.146525	0.146525	1.715367	1.286746	0.000000	0.000000	0.000000	0.000000	0.000000	0.000000	0.000000	0.000000	0.000000	0.000000	0.000000	0.000000	0.000000	0.000000	0.000000	0.000000	0.000000	0.000000	0.000000	0.000000	0.000000	0.000000
8.810000	-0.023499	-0.355656	0.234357	0.087877	0.076130	0.056031	-0.237339	-0.176115	-0.052049	0.149252	0.078953	0.027437	0.146525	0.146525	1.715662	1.286756	0.000000	0.000000	0.000000	0.000000	0.000000	0.000000	0.000000	0.000000	0.000000	0.000000	0.000000	0.000000	0.000000	0.000000	0.000000	0.000000	0.000000	0.000000	0.000000	0.000000	0.000000	0.000000
8.815000	-0.023541	-0.355806	0.234621	0.087855	0.076108	0.056036	-0.237656	-0.176204	-0.052325	0.149252	0.078855	0.027437	0.146525	0.146525	1.715957	1.286766	0.000000	0.000000	0.000000	0.000000	0.000000	0.000000	0.000000	0.000000	0.000000	0.000000	0.000000	0.000000	0.000000	0.000000	0.000000	0.000000	0.000000	0.000000	0.000000	0.000000	0.000000	0.000000
8.820000	-0.023583	-0.355958	0.234889	0.087836	0.076087	0.056043	-0.237977	-0.176296	-0.052599	0.149252	0.078757	0.027437	0.146525	0.146525	1.716253	1.286775	0.000000	0.000000	0.000000	0.000000	0.000000	0.000000	0.000000	0.000000	0.000000	0.000000	0.000000	0.000000	0.000000	0.000000	0.000000	0.000000	0.000000	0.000000	0.000000	0.000000	0.000000	0.000000
8.825000	-0.023626	-0.356109	0.235161	0.087819	0.076069	0.056051	-0.238302	-0.176391	-0.052869	0.149254	0.078661	0.027437	0.146525	0.146525	1.716548	1.286785	0.000000	0.000000	0.000000	0.000000	0.000000	0.000000	0.000000	0.000000	0.000000	0.000000	0.000000	0.000000	0.000000	0.000000	0.000000	0.000000	0.000000	0.000000	0.000000	0.000000	0.000000	0.000000
8.830000	-0.023669	-0.356261	0.235436	0.087806	0.076053	0.056062	-0.238629	-0.176490	-0.053134	0.149257	0.078566	0.027437	0.146525	0.146525	1.716843	1.286794	0.000000	0.000000	0.000000	0.000000	0.000000	0.000000	0.000000	0.000000	0.000000	0.000000	0.000000	0.000000	0.000000	0.000000	0.000000	0.000000	0.000000	0.000000	0.000000	0.000000	0.000000	0.000000
8.835000	-0.023713	-0.356413	0.235714	0.087795	0.076040	0.056076	-0.238958	-0.176594	-0.053393	0.149261	0.078474	0.027437	0.146525	0.146525	1.717137	1.286803	0.000000	0.000000	0.000000	0.000000	0.000000	0.000000	0.000000	0.000000	0.000000	0.000000	0.000000	0.000000	0.000000	0.000000	0.000000	0.000000	0.000000	0.000000	0.000000	0.000000	0.000000	0.000000
8.840000	-0.023756	-0.356564	0.235996	0.087787	0.076029	0.056093	-0.239289	-0.176701	-0.053645	0.149266	0.078383	0.027437	0.146525	0.146525	1.717431	1.286813	0.000000	0.000000	0.000000	0.000000	0.000000	0.000000	0.000000	0.000000	0.000000	0.000000	0.000000	0.000000	0.000000	0.000000	0.000000	0.000000	0.000000	0.000000	0.000000	0.000000	0.000000	0.000000
8.845000	-0.023799	-0.356714	0.236280	0.087782	0.076021	0.056113	-0.239621	-0.176814	-0.053889	0.149271	0.078294	0.027437	0.146525	0.146525	1.717724	1.286822	0.000000	0.000000	0.000000	0.000000	0.000000	0.000000	0.000000	0.000000	0.000000	0.000000	0.000000	0.000000	0.000000	0.000000	0.000000	0.000000	0.000000	0.000000	0.000000	0.000000	0.000000	0.000000
8.850000	-0.023842	-0.356862	0.236567	0.087781	0.076016	0.056137	-0.239954	-0.176931	-0.054123	0.149277	0.078208	0.027437	0.146525	0.146525	1.718016	1.286830	0.000000	0.000000	0.000000	0.000000	0.000000	0.000000	0.000000	0.000000	0.000000	0.000000	0.000000	0.000000	0.000000	0.000000	0.000000	0.000000	0.000000	0.000000	0.000000	0.000000	0.000000	0.000000
